<?xml version="1.0" encoding="UTF-8" standalone="no"?>
<!DOCTYPE svg PUBLIC "-//W3C//DTD SVG 1.1//EN" "http://www.w3.org/Graphics/SVG/1.1/DTD/svg11.dtd">
<svg width="100%" height="100%" viewBox="0 0 1800 1060" version="1.1" xmlns="http://www.w3.org/2000/svg" xmlns:xlink="http://www.w3.org/1999/xlink" xml:space="preserve" xmlns:serif="http://www.serif.com/" style="fill-rule:evenodd;clip-rule:evenodd;stroke-linejoin:round;stroke-miterlimit:2;">
    <g transform="matrix(0.335114,0,0,0.335114,-392.575,7.4412)">
        <g>
            <g transform="matrix(2.14109,0,0,1.67096,1608.82,278.404)">
                <rect x="-204.265" y="-179.902" width="2508.68" height="1885.84" style="fill:rgb(255,82,0);"/>
                <path d="M2304.42,-179.902L-204.265,-179.902L-204.265,1705.94L2304.42,1705.94L2304.42,-179.902ZM2243.63,-102.015L2243.63,1628.05C1899.66,1628.05 200.487,1628.05 -143.481,1628.05C-143.481,1628.05 -143.481,-102.015 -143.481,-102.015L2243.63,-102.015Z" style="fill:rgb(215,251,255);"/>
            </g>
            <g transform="matrix(0.49547,0,0,0.49547,3248.45,-406.397)">
                <g transform="matrix(1.15686,0,0,1.51202,-969.882,-303.326)">
                    <g transform="matrix(6.02269,0,0,4.5626,-1696.71,-809.201)">
                        <rect x="703.925" y="602.797" width="473.144" height="163.428" style="fill:rgb(215,251,255);"/>
                        <path d="M1177.07,602.797L703.925,602.797L703.925,766.225L1177.07,766.225L1177.07,602.797ZM1176.2,603.67L1176.2,765.352C1176.2,765.352 704.789,765.352 704.789,765.352C704.789,765.352 704.789,603.67 704.789,603.67C704.789,603.67 1176.2,603.67 1176.2,603.67L1176.2,603.67Z" style="fill:white;fill-opacity:0.58;"/>
                    </g>
                    <g transform="matrix(6.02269,0,0,3.41293,-1696.71,739.188)">
                        <rect x="703.925" y="602.797" width="473.144" height="163.428" style="fill:rgb(215,251,255);"/>
                        <path d="M1177.07,602.797L703.925,602.797L703.925,766.225L1177.07,766.225L1177.07,602.797ZM1176.2,603.964L1176.2,765.058C1176.2,765.058 704.789,765.058 704.789,765.058C704.789,765.058 704.789,603.964 704.789,603.964L1176.2,603.964Z" style="fill:white;fill-opacity:0.58;"/>
                    </g>
                    <g transform="matrix(6.02269,0,0,2.55295,-1696.71,1897.42)">
                        <rect x="703.925" y="602.797" width="473.144" height="163.428" style="fill:rgb(215,251,255);"/>
                        <path d="M1177.07,602.797L703.925,602.797L703.925,766.225L1177.07,766.225L1177.07,602.797ZM1176.2,604.357L1176.2,764.664C1176.2,764.664 704.789,764.664 704.789,764.664C704.789,764.664 704.789,604.357 704.789,604.357C704.789,604.357 1176.2,604.357 1176.2,604.357L1176.2,604.357Z" style="fill:white;fill-opacity:0.58;"/>
                    </g>
                    <g transform="matrix(6.02269,0,0,1.90966,-1696.71,2763.8)">
                        <rect x="703.925" y="602.797" width="473.144" height="163.428" style="fill:rgb(215,251,255);"/>
                        <path d="M1177.07,602.797L703.925,602.797L703.925,766.225L1177.07,766.225L1177.07,602.797ZM1176.2,604.883L1176.2,764.139C1176.2,764.139 727.159,764.139 704.789,764.139C704.789,764.139 704.789,604.883 704.789,604.883C704.789,604.883 1176.2,604.883 1176.2,604.883L1176.2,604.883Z" style="fill:white;fill-opacity:0.58;"/>
                    </g>
                    <g transform="matrix(6.02269,0,0,1.42847,-1696.71,3411.87)">
                        <rect x="703.925" y="602.797" width="473.144" height="163.428" style="fill:rgb(215,251,255);"/>
                        <path d="M1177.07,602.797L703.925,602.797L703.925,766.225L1177.07,766.225L1177.07,602.797ZM1176.2,605.586L1176.2,763.436C1176.2,763.436 704.789,763.436 704.789,763.436C704.789,763.436 704.789,605.586 704.789,605.586L1176.2,605.586Z" style="fill:white;fill-opacity:0.58;"/>
                    </g>
                    <g transform="matrix(6.02269,0,0,1.06853,-1696.71,3896.64)">
                        <rect x="703.925" y="602.797" width="473.144" height="163.428" style="fill:rgb(215,251,255);"/>
                        <path d="M1177.07,602.797L703.925,602.797L703.925,766.225L1177.07,766.225L1177.07,602.797ZM1176.2,606.525L1176.2,762.497C1176.2,762.497 704.789,762.497 704.789,762.497C704.789,762.497 704.789,606.525 704.789,606.525L1176.2,606.525Z" style="fill:white;fill-opacity:0.58;"/>
                    </g>
                </g>
                <g transform="matrix(1.2796,0,0,1.2796,-1436.1,-32.572)">
                    <g transform="matrix(1.26437,0,0,1.26437,-1353.97,-1399.9)">
                        <path d="M3298.18,2550.26C3273.9,2550.26 3252.12,2545.89 3232.84,2537.14C3213.56,2528.39 3198.3,2516.52 3187.05,2501.52C3175.81,2486.53 3169.65,2469.93 3168.58,2451.72L3244.09,2451.72C3245.52,2463.14 3251.14,2472.6 3260.96,2480.1C3270.78,2487.6 3283.01,2491.35 3297.65,2491.35C3311.93,2491.35 3323.09,2488.49 3331.12,2482.78C3339.15,2477.07 3343.17,2469.75 3343.17,2460.82C3343.17,2451.18 3338.26,2443.95 3328.44,2439.13C3318.62,2434.31 3303,2429.05 3281.58,2423.33C3259.44,2417.98 3241.32,2412.44 3227.22,2406.73C3213.12,2401.02 3200.98,2392.27 3190.8,2380.49C3180.63,2368.7 3175.54,2352.82 3175.54,2332.82C3175.54,2316.4 3180.27,2301.4 3189.73,2287.83C3199.19,2274.27 3212.76,2263.55 3230.43,2255.7C3248.11,2247.85 3268.91,2243.92 3292.83,2243.92C3328.18,2243.92 3356.38,2252.76 3377.45,2270.43C3398.51,2288.1 3410.12,2311.93 3412.26,2341.93L3340.49,2341.93C3339.42,2330.14 3334.51,2320.77 3325.76,2313.81C3317.02,2306.85 3305.32,2303.37 3290.68,2303.37C3277.12,2303.37 3266.67,2305.87 3259.36,2310.86C3252.03,2315.86 3248.38,2322.82 3248.38,2331.75C3248.38,2341.75 3253.37,2349.34 3263.37,2354.51C3273.37,2359.69 3288.9,2364.95 3309.97,2370.31C3331.39,2375.67 3349.06,2381.2 3362.99,2386.91C3376.91,2392.63 3388.96,2401.46 3399.14,2413.42C3409.31,2425.39 3414.58,2441.18 3414.94,2460.82C3414.94,2477.96 3410.2,2493.31 3400.74,2506.88C3391.28,2520.45 3377.71,2531.07 3360.04,2538.75C3342.37,2546.42 3321.75,2550.26 3298.18,2550.26Z" style="fill:rgb(215,251,255);fill-rule:nonzero;"/>
                        <path d="M3298.18,2553.98C3322.32,2553.98 3343.43,2550.02 3361.52,2542.16C3379.89,2534.18 3393.96,2523.11 3403.8,2509.01C3413.7,2494.81 3418.66,2478.75 3418.66,2460.82C3418.28,2440.13 3412.66,2423.57 3401.97,2411.01C3391.4,2398.58 3378.87,2389.41 3364.4,2383.47C3350.34,2377.7 3332.5,2372.11 3310.88,2366.7C3290.18,2361.44 3274.91,2356.29 3265.08,2351.21C3256.5,2346.76 3252.1,2340.33 3252.1,2331.75C3252.1,2324.14 3255.21,2318.2 3261.45,2313.94C3268.28,2309.28 3278.04,2307.09 3290.68,2307.09C3304.34,2307.09 3315.28,2310.23 3323.45,2316.72C3331.39,2323.04 3335.81,2331.57 3336.78,2342.26L3340.49,2345.65L3412.26,2345.65L3415.97,2341.66C3413.75,2310.57 3401.67,2285.89 3379.84,2267.58C3358.17,2249.4 3329.19,2240.2 3292.83,2240.2C3268.32,2240.2 3247.03,2244.25 3228.92,2252.3C3210.57,2260.46 3196.5,2271.61 3186.68,2285.7C3176.77,2299.91 3171.82,2315.62 3171.82,2332.82C3171.82,2353.85 3177.28,2370.53 3187.99,2382.92C3198.56,2395.16 3211.17,2404.24 3225.82,2410.18C3240.05,2415.94 3258.33,2421.53 3280.66,2426.94C3301.75,2432.56 3317.13,2437.73 3326.8,2442.47C3335.15,2446.57 3339.45,2452.63 3339.45,2460.82C3339.45,2468.53 3335.9,2474.81 3328.96,2479.75C3321.45,2485.09 3310.99,2487.63 3297.65,2487.63C3283.92,2487.63 3272.43,2484.18 3263.22,2477.14C3254.26,2470.3 3249.09,2461.68 3247.78,2451.26L3244.09,2447.99L3168.58,2447.99L3164.86,2451.93C3165.97,2470.88 3172.37,2488.16 3184.08,2503.76C3195.68,2519.23 3211.41,2531.5 3231.31,2540.53C3251.04,2549.48 3273.33,2553.98 3298.18,2553.98ZM3298.18,2550.26C3273.9,2550.26 3252.12,2545.89 3232.84,2537.14C3213.56,2528.39 3198.3,2516.52 3187.05,2501.52C3175.81,2486.53 3169.65,2469.93 3168.58,2451.72L3244.09,2451.72C3245.52,2463.14 3251.14,2472.6 3260.96,2480.1C3270.78,2487.6 3283.01,2491.35 3297.65,2491.35C3311.93,2491.35 3323.09,2488.49 3331.12,2482.78C3339.15,2477.07 3343.17,2469.75 3343.17,2460.82C3343.17,2451.18 3338.26,2443.95 3328.44,2439.13C3318.62,2434.31 3303,2429.05 3281.58,2423.33C3259.44,2417.98 3241.32,2412.44 3227.22,2406.73C3213.12,2401.02 3200.98,2392.27 3190.8,2380.49C3180.63,2368.7 3175.54,2352.82 3175.54,2332.82C3175.54,2316.4 3180.27,2301.4 3189.73,2287.83C3199.19,2274.27 3212.76,2263.55 3230.43,2255.7C3248.11,2247.85 3268.91,2243.92 3292.83,2243.92C3328.18,2243.92 3356.38,2252.76 3377.45,2270.43C3398.51,2288.1 3410.12,2311.93 3412.26,2341.93L3340.49,2341.93C3339.42,2330.14 3334.51,2320.77 3325.76,2313.81C3317.02,2306.85 3305.32,2303.37 3290.68,2303.37C3277.12,2303.37 3266.67,2305.87 3259.36,2310.86C3252.03,2315.86 3248.38,2322.82 3248.38,2331.75C3248.38,2341.75 3253.37,2349.34 3263.37,2354.51C3273.37,2359.69 3288.9,2364.95 3309.97,2370.31C3331.39,2375.67 3349.06,2381.2 3362.99,2386.91C3376.91,2392.63 3388.96,2401.46 3399.14,2413.42C3409.31,2425.39 3414.58,2441.18 3414.94,2460.82C3414.94,2477.96 3410.2,2493.31 3400.74,2506.88C3391.28,2520.45 3377.71,2531.07 3360.04,2538.75C3342.37,2546.42 3321.75,2550.26 3298.18,2550.26Z" style="fill:white;"/>
                        <path d="M3756.63,2248.74L3756.63,2545.44L3681.11,2545.44L3681.11,2507.95C3671.47,2520.8 3658.89,2530.89 3643.35,2538.21C3627.82,2545.53 3610.95,2549.19 3592.74,2549.19C3569.54,2549.19 3549.01,2544.28 3531.15,2534.46C3513.3,2524.64 3499.29,2510.18 3489.11,2491.08C3478.94,2471.98 3473.85,2449.22 3473.85,2422.8L3473.85,2248.74L3548.83,2248.74L3548.83,2412.09C3548.83,2435.65 3554.72,2453.77 3566.5,2466.45C3578.28,2479.12 3594.35,2485.46 3614.7,2485.46C3635.41,2485.46 3651.66,2479.12 3663.44,2466.45C3675.22,2453.77 3681.11,2435.65 3681.11,2412.09L3681.11,2248.74L3756.63,2248.74Z" style="fill:rgb(215,251,255);fill-rule:nonzero;"/>
                        <path d="M3760.35,2248.74L3756.63,2245.01L3681.11,2245.01L3677.39,2248.74L3677.39,2412.09C3677.39,2434.53 3671.93,2451.84 3660.71,2463.91C3649.6,2475.87 3634.23,2481.74 3614.7,2481.74C3595.52,2481.74 3580.33,2475.86 3569.23,2463.91C3558.01,2451.84 3552.55,2434.53 3552.55,2412.09C3552.55,2412.09 3552.55,2248.74 3552.55,2248.74L3548.83,2245.01L3473.85,2245.01L3470.13,2248.74L3470.13,2422.8C3470.13,2449.9 3475.39,2473.24 3485.83,2492.83C3496.36,2512.6 3510.88,2527.56 3529.36,2537.72C3547.73,2547.83 3568.86,2552.91 3592.74,2552.91C3611.53,2552.91 3628.92,2549.13 3644.94,2541.58C3657.67,2535.58 3668.48,2527.79 3677.39,2518.2C3677.39,2518.2 3677.39,2545.44 3677.39,2545.44L3681.11,2549.16L3756.63,2549.16L3760.35,2545.44L3760.35,2248.74ZM3756.63,2248.74L3756.63,2545.44L3681.11,2545.44L3681.11,2507.95C3671.47,2520.8 3658.89,2530.89 3643.35,2538.21C3627.82,2545.53 3610.95,2549.19 3592.74,2549.19C3569.54,2549.19 3549.01,2544.28 3531.15,2534.46C3513.3,2524.64 3499.29,2510.18 3489.11,2491.08C3478.94,2471.98 3473.85,2449.22 3473.85,2422.8L3473.85,2248.74L3548.83,2248.74L3548.83,2412.09C3548.83,2435.65 3554.72,2453.77 3566.5,2466.45C3578.28,2479.12 3594.35,2485.46 3614.7,2485.46C3635.41,2485.46 3651.66,2479.12 3663.44,2466.45C3675.22,2453.77 3681.11,2435.65 3681.11,2412.09L3681.11,2248.74L3756.63,2248.74Z" style="fill:white;"/>
                        <path d="M3905.51,2294.8C3915.15,2279.09 3927.74,2266.77 3943.27,2257.84C3958.8,2248.92 3976.57,2244.45 3996.56,2244.45L3996.56,2323.18L3976.74,2323.18C3953.18,2323.18 3935.42,2328.72 3923.45,2339.78C3911.49,2350.85 3905.51,2370.13 3905.51,2397.62L3905.51,2545.44L3830.53,2545.44L3830.53,2248.74L3905.51,2248.74L3905.51,2294.8Z" style="fill:rgb(215,251,255);fill-rule:nonzero;"/>
                        <path d="M3909.24,2282.8L3909.24,2248.74L3905.51,2245.01L3830.53,2245.01L3826.81,2248.74L3826.81,2545.44L3830.53,2549.16L3905.51,2549.16L3909.24,2545.44L3909.24,2397.62C3909.24,2371.48 3914.61,2353.04 3925.98,2342.52C3937.36,2331.99 3954.32,2326.9 3976.74,2326.9C3976.74,2326.9 3996.56,2326.9 3996.56,2326.9L4000.28,2323.18L4000.28,2244.45L3996.56,2240.73C3975.87,2240.73 3957.49,2245.38 3941.42,2254.62C3928.82,2261.86 3918.09,2271.25 3909.24,2282.8L3909.24,2282.8ZM3905.51,2294.8C3915.15,2279.09 3927.74,2266.77 3943.27,2257.84C3958.8,2248.92 3976.57,2244.45 3996.56,2244.45L3996.56,2323.18L3976.74,2323.18C3953.18,2323.18 3935.42,2328.72 3923.45,2339.78C3911.49,2350.85 3905.51,2370.13 3905.51,2397.62L3905.51,2545.44L3830.53,2545.44L3830.53,2248.74L3905.51,2248.74L3905.51,2294.8Z" style="fill:white;"/>
                        <path d="M4182.94,2310.33L4130.99,2310.33L4130.99,2545.44L4054.94,2545.44L4054.94,2310.33L4021.2,2310.33L4021.2,2248.74L4054.94,2248.74L4054.94,2233.74C4054.94,2197.32 4065.29,2170.55 4086,2153.41C4106.71,2136.27 4137.95,2128.24 4179.72,2129.31L4179.72,2192.5C4161.51,2192.15 4148.84,2195.18 4141.7,2201.61C4134.56,2208.03 4130.99,2219.64 4130.99,2236.42L4130.99,2248.74L4182.94,2248.74L4182.94,2310.33Z" style="fill:rgb(215,251,255);fill-rule:nonzero;"/>
                        <path d="M4182.94,2314.05L4186.66,2310.33L4186.66,2248.74L4182.94,2245.01L4134.71,2245.01C4134.71,2245.01 4134.71,2236.42 4134.71,2236.42C4134.71,2221.02 4137.64,2210.27 4144.19,2204.38C4150.83,2198.39 4162.7,2195.89 4179.65,2196.23L4183.44,2192.5L4183.44,2129.31L4179.82,2125.59C4136.92,2124.49 4104.89,2132.94 4083.62,2150.54C4062.16,2168.31 4051.21,2195.99 4051.21,2233.74C4051.21,2233.74 4051.21,2245.01 4051.21,2245.01C4051.21,2245.01 4021.2,2245.01 4021.2,2245.01L4017.47,2248.74L4017.47,2310.33L4021.2,2314.05L4051.21,2314.05C4051.21,2314.05 4051.21,2545.44 4051.21,2545.44L4054.94,2549.16L4130.99,2549.16L4134.71,2545.44L4134.71,2314.05C4134.71,2314.05 4182.94,2314.05 4182.94,2314.05ZM4182.94,2310.33L4130.99,2310.33L4130.99,2545.44L4054.94,2545.44L4054.94,2310.33L4021.2,2310.33L4021.2,2248.74L4054.94,2248.74L4054.94,2233.74C4054.94,2197.32 4065.29,2170.55 4086,2153.41C4106.71,2136.27 4137.95,2128.24 4179.72,2129.31L4179.72,2192.5C4161.51,2192.15 4148.84,2195.18 4141.7,2201.61C4134.56,2208.03 4130.99,2219.64 4130.99,2236.42L4130.99,2248.74L4182.94,2248.74L4182.94,2310.33Z" style="fill:white;"/>
                        <path d="M4212.39,2396.02C4212.39,2366.03 4218.37,2339.43 4230.33,2316.22C4242.29,2293.01 4258.54,2275.16 4279.07,2262.66C4299.6,2250.17 4322.54,2243.92 4347.89,2243.92C4370.03,2243.92 4389.4,2248.38 4406,2257.31C4422.6,2266.23 4435.9,2277.48 4445.9,2291.05L4445.9,2248.74L4521.41,2248.74L4521.41,2545.44L4445.9,2545.44L4445.9,2502.06C4436.26,2515.99 4422.96,2527.5 4406,2536.6C4389.04,2545.71 4369.49,2550.26 4347.35,2550.26C4322.36,2550.26 4299.6,2543.83 4279.07,2530.98C4258.54,2518.13 4242.29,2500.01 4230.33,2476.62C4218.37,2453.23 4212.39,2426.37 4212.39,2396.02ZM4445.9,2397.09C4445.9,2378.88 4442.33,2363.26 4435.19,2350.23C4428.05,2337.2 4418.4,2327.2 4406.27,2320.24C4394.13,2313.27 4381.09,2309.79 4367.17,2309.79C4353.24,2309.79 4340.39,2313.18 4328.61,2319.97C4316.83,2326.75 4307.28,2336.66 4299.96,2349.69C4292.64,2362.72 4288.98,2378.17 4288.98,2396.02C4288.98,2413.87 4292.64,2429.49 4299.96,2442.88C4307.28,2456.27 4316.92,2466.53 4328.88,2473.68C4340.84,2480.82 4353.6,2484.39 4367.17,2484.39C4381.09,2484.39 4394.13,2480.91 4406.27,2473.94C4418.4,2466.98 4428.05,2456.98 4435.19,2443.95C4442.33,2430.92 4445.9,2415.3 4445.9,2397.09Z" style="fill:rgb(215,251,255);fill-rule:nonzero;"/>
                        <path d="M4208.67,2396.02C4208.67,2427.01 4214.81,2454.44 4227.02,2478.32C4239.3,2502.34 4256.01,2520.93 4277.09,2534.14C4298.22,2547.36 4321.64,2553.98 4347.35,2553.98C4370.16,2553.98 4390.29,2549.26 4407.76,2539.88C4421.59,2532.46 4433.06,2523.47 4442.17,2512.93C4442.18,2512.93 4442.18,2545.44 4442.18,2545.44L4445.9,2549.16L4521.41,2549.16L4525.14,2545.44L4525.14,2248.74L4521.41,2245.01L4445.9,2245.01L4442.18,2248.74L4442.18,2280.59C4432.86,2270.22 4421.4,2261.36 4407.76,2254.03C4390.65,2244.83 4370.7,2240.2 4347.89,2240.2C4321.82,2240.2 4298.24,2246.63 4277.13,2259.48C4256.03,2272.33 4239.32,2290.66 4227.02,2314.51C4214.81,2338.22 4208.67,2365.38 4208.67,2396.02ZM4212.39,2396.02C4212.39,2366.03 4218.37,2339.43 4230.33,2316.22C4242.29,2293.01 4258.54,2275.16 4279.07,2262.66C4299.6,2250.17 4322.54,2243.92 4347.89,2243.92C4370.03,2243.92 4389.4,2248.38 4406,2257.31C4422.6,2266.23 4435.9,2277.48 4445.9,2291.05L4445.9,2248.74L4521.41,2248.74L4521.41,2545.44L4445.9,2545.44L4445.9,2502.06C4436.26,2515.99 4422.96,2527.5 4406,2536.6C4389.04,2545.71 4369.49,2550.26 4347.35,2550.26C4322.36,2550.26 4299.6,2543.83 4279.07,2530.98C4258.54,2518.13 4242.29,2500.01 4230.33,2476.62C4218.37,2453.23 4212.39,2426.37 4212.39,2396.02ZM4445.9,2397.09C4445.9,2378.88 4442.33,2363.26 4435.19,2350.23C4428.05,2337.2 4418.4,2327.2 4406.27,2320.24C4394.13,2313.27 4381.09,2309.79 4367.17,2309.79C4353.24,2309.79 4340.39,2313.18 4328.61,2319.97C4316.83,2326.75 4307.28,2336.66 4299.96,2349.69C4292.64,2362.72 4288.98,2378.17 4288.98,2396.02C4288.98,2413.87 4292.64,2429.49 4299.96,2442.88C4307.28,2456.27 4316.92,2466.53 4328.88,2473.68C4340.84,2480.82 4353.6,2484.39 4367.17,2484.39C4381.09,2484.39 4394.13,2480.91 4406.27,2473.94C4418.4,2466.98 4428.05,2456.98 4435.19,2443.95C4442.33,2430.92 4445.9,2415.3 4445.9,2397.09ZM4442.18,2397.09C4442.18,2414.6 4438.79,2429.63 4431.92,2442.16C4425.13,2454.56 4415.97,2464.09 4404.41,2470.71C4392.85,2477.35 4380.44,2480.66 4367.17,2480.66C4354.28,2480.66 4342.15,2477.26 4330.78,2470.48C4319.38,2463.67 4310.2,2453.86 4303.22,2441.09C4296.18,2428.22 4292.7,2413.19 4292.7,2396.02C4292.7,2378.87 4296.17,2364.03 4303.2,2351.51C4310.17,2339.11 4319.25,2329.65 4330.47,2323.19C4341.68,2316.74 4353.92,2313.51 4367.17,2313.51C4380.44,2313.51 4392.85,2316.83 4404.41,2323.47C4415.97,2330.09 4425.13,2339.62 4431.92,2352.02C4438.79,2364.55 4442.18,2379.58 4442.18,2397.09Z" style="fill:white;"/>
                        <path d="M4575.5,2397.09C4575.5,2366.38 4581.75,2339.52 4594.25,2316.49C4606.75,2293.46 4624.06,2275.61 4646.2,2262.93C4668.34,2250.26 4693.69,2243.92 4722.25,2243.92C4759.02,2243.92 4789.46,2253.11 4813.56,2271.5C4837.66,2289.89 4853.82,2315.68 4862.03,2348.89L4781.16,2348.89C4776.88,2336.03 4769.65,2325.95 4759.47,2318.63C4749.3,2311.31 4736.71,2307.65 4721.71,2307.65C4700.29,2307.65 4683.33,2315.42 4670.84,2330.95C4658.34,2346.48 4652.09,2368.53 4652.09,2397.09C4652.09,2425.3 4658.34,2447.16 4670.84,2462.7C4683.33,2478.23 4700.29,2485.99 4721.71,2485.99C4752.06,2485.99 4771.88,2472.43 4781.16,2445.29L4862.03,2445.29C4853.82,2477.42 4837.57,2502.95 4813.3,2521.88C4789.02,2540.8 4758.67,2550.26 4722.25,2550.26C4693.69,2550.26 4668.34,2543.92 4646.2,2531.25C4624.06,2518.57 4606.75,2500.72 4594.25,2477.69C4581.75,2454.66 4575.5,2427.8 4575.5,2397.09Z" style="fill:rgb(215,251,255);fill-rule:nonzero;"/>
                        <path d="M4571.78,2397.09C4571.78,2428.47 4578.2,2455.93 4590.98,2479.47C4603.82,2503.12 4621.61,2521.46 4644.35,2534.48C4667.03,2547.46 4692.99,2553.98 4722.25,2553.98C4759.59,2553.98 4790.69,2544.22 4815.58,2524.81C4840.51,2505.39 4857.21,2479.2 4865.64,2446.21L4862.03,2441.57L4781.16,2441.57L4777.64,2444.09C4768.91,2469.59 4750.24,2482.27 4721.71,2482.27C4701.52,2482.27 4685.51,2475 4673.73,2460.36C4661.69,2445.39 4655.81,2424.28 4655.81,2397.09C4655.81,2369.55 4661.69,2348.25 4673.73,2333.28C4685.51,2318.64 4701.52,2311.37 4721.71,2311.37C4735.84,2311.37 4747.71,2314.76 4757.3,2321.65C4766.85,2328.52 4773.61,2338 4777.63,2350.07L4781.16,2352.61L4862.03,2352.61L4865.65,2347.99C4857.21,2313.89 4840.57,2287.43 4815.82,2268.54C4791.12,2249.69 4759.94,2240.2 4722.25,2240.2C4692.99,2240.2 4667.03,2246.72 4644.35,2259.7C4621.61,2272.72 4603.82,2291.05 4590.98,2314.71C4578.2,2338.25 4571.78,2365.7 4571.78,2397.09ZM4575.5,2397.09C4575.5,2366.38 4581.75,2339.52 4594.25,2316.49C4606.75,2293.46 4624.06,2275.61 4646.2,2262.93C4668.34,2250.26 4693.69,2243.92 4722.25,2243.92C4759.02,2243.92 4789.46,2253.11 4813.56,2271.5C4837.66,2289.89 4853.82,2315.68 4862.03,2348.89L4781.16,2348.89C4776.88,2336.03 4769.65,2325.95 4759.47,2318.63C4749.3,2311.31 4736.71,2307.65 4721.71,2307.65C4700.29,2307.65 4683.33,2315.42 4670.84,2330.95C4658.34,2346.48 4652.09,2368.53 4652.09,2397.09C4652.09,2425.3 4658.34,2447.16 4670.84,2462.7C4683.33,2478.23 4700.29,2485.99 4721.71,2485.99C4752.06,2485.99 4771.88,2472.43 4781.16,2445.29L4862.03,2445.29C4853.82,2477.42 4837.57,2502.95 4813.3,2521.88C4789.02,2540.8 4758.67,2550.26 4722.25,2550.26C4693.69,2550.26 4668.34,2543.92 4646.2,2531.25C4624.06,2518.57 4606.75,2500.72 4594.25,2477.69C4581.75,2454.66 4575.5,2427.8 4575.5,2397.09Z" style="fill:white;"/>
                        <path d="M5193.01,2390.66C5193.01,2401.37 5192.3,2411.01 5190.87,2419.58L4973.96,2419.58C4975.75,2441.01 4983.25,2457.79 4996.46,2469.93C5009.67,2482.07 5025.91,2488.14 5045.19,2488.14C5073.04,2488.14 5092.86,2476.17 5104.64,2452.25L5185.51,2452.25C5176.94,2480.82 5160.52,2504.29 5136.24,2522.68C5111.96,2541.07 5082.15,2550.26 5046.8,2550.26C5018.24,2550.26 4992.62,2543.92 4969.95,2531.25C4947.28,2518.57 4929.6,2500.63 4916.93,2477.42C4904.25,2454.22 4897.91,2427.44 4897.91,2397.09C4897.91,2366.38 4904.16,2339.43 4916.66,2316.22C4929.15,2293.01 4946.65,2275.16 4969.14,2262.66C4991.64,2250.17 5017.52,2243.92 5046.8,2243.92C5075.01,2243.92 5100.27,2249.99 5122.58,2262.13C5144.9,2274.27 5162.22,2291.49 5174.53,2313.81C5186.85,2336.12 5193.01,2361.74 5193.01,2390.66ZM5115.35,2369.24C5115,2349.96 5108.03,2334.52 5094.47,2322.91C5080.9,2311.31 5064.3,2305.51 5044.66,2305.51C5026.09,2305.51 5010.47,2311.13 4997.8,2322.38C4985.12,2333.62 4977.36,2349.25 4974.5,2369.24L5115.35,2369.24Z" style="fill:rgb(215,251,255);fill-rule:nonzero;"/>
                        <path d="M5196.73,2390.66C5196.73,2361.06 5190.4,2334.85 5177.79,2312.01C5165.12,2289.06 5147.31,2271.34 5124.36,2258.86C5101.52,2246.43 5075.67,2240.2 5046.8,2240.2C5016.84,2240.2 4990.36,2246.62 4967.34,2259.41C4944.22,2272.25 4926.23,2290.6 4913.38,2314.45C4900.61,2338.17 4894.19,2365.71 4894.19,2397.09C4894.19,2428.12 4900.7,2455.48 4913.66,2479.21C4926.68,2503.05 4944.84,2521.48 4968.13,2534.5C4991.34,2547.47 5017.56,2553.98 5046.8,2553.98C5083.04,2553.98 5113.59,2544.5 5138.49,2525.65C5163.42,2506.76 5180.28,2482.65 5189.08,2453.32L5185.51,2448.53L5104.64,2448.53L5101.3,2450.61C5090.19,2473.18 5071.47,2484.41 5045.19,2484.41C5026.92,2484.41 5011.5,2478.69 4998.98,2467.18C4987.26,2456.41 4980.34,2441.77 4978.09,2423.31C4978.09,2423.31 5190.87,2423.31 5190.87,2423.31L5194.54,2420.2C5196,2411.45 5196.73,2401.6 5196.73,2390.66ZM5193.01,2390.66C5193.01,2401.37 5192.3,2411.01 5190.87,2419.58L4973.96,2419.58C4975.75,2441.01 4983.25,2457.79 4996.46,2469.93C5009.67,2482.07 5025.91,2488.14 5045.19,2488.14C5073.04,2488.14 5092.86,2476.17 5104.64,2452.25L5185.51,2452.25C5176.94,2480.82 5160.52,2504.29 5136.24,2522.68C5111.96,2541.07 5082.15,2550.26 5046.8,2550.26C5018.24,2550.26 4992.62,2543.92 4969.95,2531.25C4947.28,2518.57 4929.6,2500.63 4916.93,2477.42C4904.25,2454.22 4897.91,2427.44 4897.91,2397.09C4897.91,2366.38 4904.16,2339.43 4916.66,2316.22C4929.15,2293.01 4946.65,2275.16 4969.14,2262.66C4991.64,2250.17 5017.52,2243.92 5046.8,2243.92C5075.01,2243.92 5100.27,2249.99 5122.58,2262.13C5144.9,2274.27 5162.22,2291.49 5174.53,2313.81C5186.85,2336.12 5193.01,2361.74 5193.01,2390.66ZM5115.35,2369.24C5115,2349.96 5108.03,2334.52 5094.47,2322.91C5080.9,2311.31 5064.3,2305.51 5044.66,2305.51C5026.09,2305.51 5010.47,2311.13 4997.8,2322.38C4985.12,2333.62 4977.36,2349.25 4974.5,2369.24L5115.35,2369.24ZM5111.47,2365.52L4978.88,2365.52C4982.04,2348.52 4989.13,2335.05 5000.27,2325.16C5012.27,2314.51 5027.08,2309.23 5044.66,2309.23C5063.34,2309.23 5079.14,2314.71 5092.05,2325.74C5103.9,2335.88 5110.35,2349.15 5111.47,2365.52L5111.47,2365.52Z" style="fill:white;"/>
                    </g>
                    <g transform="matrix(0.373991,0,0,0.500065,3952.34,227.049)">
                        <path d="M3478.74,2478.49L3478.74,2009.88L3612.63,2009.88L3612.63,2277.66L3746.52,2277.66L3746.52,2210.71L3813.46,2210.71L3813.46,2143.77L3947.35,2143.77L3947.35,2210.71L3880.41,2210.71L3880.41,2277.66L3813.46,2277.66L3813.46,2344.6L3880.41,2344.6L3880.41,2411.55L3947.35,2411.55L3947.35,2478.49L3813.46,2478.49L3813.46,2411.55L3746.52,2411.55L3746.52,2344.6L3612.63,2344.6L3612.63,2478.49L3478.74,2478.49Z" style="fill:rgb(215,251,255);fill-rule:nonzero;"/>
                        <path d="M3466.15,2478.49L3478.74,2487.91L3612.63,2487.91L3625.21,2478.49L3625.21,2354.02C3625.21,2354.02 3733.93,2354.02 3733.93,2354.02C3733.93,2354.02 3733.93,2411.55 3733.93,2411.55L3746.52,2420.96L3800.88,2420.96C3800.88,2420.96 3800.88,2478.49 3800.88,2478.49L3813.46,2487.91L3947.35,2487.91L3959.94,2478.49L3959.94,2411.55L3947.35,2402.14L3892.99,2402.14C3892.99,2402.14 3892.99,2344.6 3892.99,2344.6L3880.41,2335.19L3826.05,2335.19C3826.05,2335.19 3826.05,2287.07 3826.05,2287.07C3826.05,2287.07 3880.41,2287.07 3880.41,2287.07L3892.99,2277.66L3892.99,2220.12C3892.99,2220.12 3947.35,2220.12 3947.35,2220.12L3959.94,2210.71L3959.94,2143.77L3947.35,2134.36L3813.46,2134.36L3800.88,2143.77L3800.88,2201.3C3800.88,2201.3 3746.52,2201.3 3746.52,2201.3L3733.93,2210.71L3733.93,2268.25C3733.93,2268.25 3625.21,2268.25 3625.21,2268.25C3625.21,2268.25 3625.21,2009.88 3625.21,2009.88L3612.63,2000.46L3478.74,2000.46L3466.15,2009.88L3466.15,2478.49ZM3478.74,2478.49L3478.74,2009.88L3612.63,2009.88L3612.63,2277.66L3746.52,2277.66L3746.52,2210.71L3813.46,2210.71L3813.46,2143.77L3947.35,2143.77L3947.35,2210.71L3880.41,2210.71L3880.41,2277.66L3813.46,2277.66L3813.46,2344.6L3880.41,2344.6L3880.41,2411.55L3947.35,2411.55L3947.35,2478.49L3813.46,2478.49L3813.46,2411.55L3746.52,2411.55L3746.52,2344.6L3612.63,2344.6L3612.63,2478.49L3478.74,2478.49Z" style="fill:white;"/>
                        <path d="M4112.24,2076.82L4112.24,2009.88L4246.13,2009.88L4246.13,2076.82L4112.24,2076.82ZM3978.35,2478.49L3978.35,2411.55L4112.24,2411.55L4112.24,2210.71L4045.3,2210.71L4045.3,2143.77L4246.13,2143.77L4246.13,2411.55L4380.02,2411.55L4380.02,2478.49L3978.35,2478.49Z" style="fill:rgb(215,251,255);fill-rule:nonzero;"/>
                        <path d="M3965.76,2478.49L3978.35,2487.91L4380.02,2487.91L4392.61,2478.49L4392.61,2411.55L4380.02,2402.14L4258.72,2402.14C4258.72,2402.14 4258.72,2143.77 4258.72,2143.77L4246.13,2134.36L4045.3,2134.36L4032.71,2143.77L4032.71,2210.71L4045.3,2220.12L4099.66,2220.12C4099.66,2220.12 4099.66,2402.14 4099.66,2402.14C4099.66,2402.14 3978.35,2402.14 3978.35,2402.14L3965.76,2411.55L3965.76,2478.49ZM3978.35,2478.49L3978.35,2411.55L4112.24,2411.55L4112.24,2210.71L4045.3,2210.71L4045.3,2143.77L4246.13,2143.77L4246.13,2411.55L4380.02,2411.55L4380.02,2478.49L3978.35,2478.49ZM4099.66,2076.82L4112.24,2086.23L4246.13,2086.23L4258.72,2076.82L4258.72,2009.88L4246.13,2000.46L4112.24,2000.46L4099.66,2009.88L4099.66,2076.82ZM4112.24,2076.82L4112.24,2009.88L4246.13,2009.88L4246.13,2076.82L4112.24,2076.82Z" style="fill:white;"/>
                        <g transform="matrix(1,0,0,1,-80.5297,0)">
                            <g transform="matrix(1,0,0,1,-54.1203,0)">
                                <path d="M4544.91,2478.49L4544.91,2009.88L4678.8,2009.88L4678.8,2143.77L4812.69,2143.77L4812.69,2210.71L4678.8,2210.71L4678.8,2478.49L4544.91,2478.49Z" style="fill:rgb(215,251,255);fill-rule:nonzero;"/>
                                <path d="M4532.32,2478.49L4544.91,2487.91L4678.8,2487.91L4691.39,2478.49L4691.39,2220.12C4691.39,2220.12 4812.69,2220.12 4812.69,2220.12L4825.28,2210.71L4825.28,2143.77L4812.69,2134.36L4691.39,2134.36C4691.39,2134.36 4691.39,2009.88 4691.39,2009.88L4678.8,2000.46L4544.91,2000.46L4532.32,2009.88L4532.32,2478.49ZM4544.91,2478.49L4544.91,2009.88L4678.8,2009.88L4678.8,2143.77L4812.69,2143.77L4812.69,2210.71L4678.8,2210.71L4678.8,2478.49L4544.91,2478.49Z" style="fill:white;"/>
                            </g>
                            <g transform="matrix(16.8796,0,0,10.4208,-22381.7,702.866)">
                                <rect x="1599.49" y="163.942" width="6.19" height="6.451" style="fill:rgb(215,251,255);"/>
                                <path d="M1605.68,163.942L1599.49,163.942L1599.49,170.393L1605.68,170.393L1605.68,163.942ZM1604.94,164.846L1604.94,169.49C1604.94,169.49 1600.24,169.49 1600.24,169.49C1600.24,169.49 1600.24,164.846 1600.24,164.846L1604.94,164.846Z" style="fill:white;fill-opacity:0.58;"/>
                            </g>
                            <g transform="matrix(16.8796,0,0,10.4208,-22449.3,401.315)">
                                <rect x="1599.49" y="163.942" width="6.19" height="6.451" style="fill:rgb(215,251,255);"/>
                                <path d="M1605.68,163.942L1599.49,163.942L1599.49,170.393L1605.68,170.393L1605.68,163.942ZM1604.94,164.846L1604.94,169.49C1604.94,169.49 1600.24,169.49 1600.24,169.49C1600.24,169.49 1600.24,164.846 1600.24,164.846L1604.94,164.846Z" style="fill:white;fill-opacity:0.58;"/>
                            </g>
                        </g>
                    </g>
                </g>
            </g>
        </g>
    </g>
</svg>
